<svg width="1991" height="986" viewBox="0 0 1991 986" fill="none" xmlns="http://www.w3.org/2000/svg">
<path d="M42 43C42 41.8954 42.8954 41 44 41H1949C1950.1 41 1951 41.8954 1951 43V944C1951 945.105 1950.1 946 1949 946H44C42.8954 946 42 945.105 42 944V43Z" fill="white"/>
<path d="M44 41V42H1949V41V40H44V41ZM1951 43H1950V944H1951H1952V43H1951ZM1949 946V945H44V946V947H1949V946ZM42 944H43V43H42H41V944H42ZM44 946V945C43.4477 945 43 944.552 43 944H42H41C41 945.657 42.3432 947 44 947V946ZM1951 944H1950C1950 944.552 1949.55 945 1949 945V946V947C1950.66 947 1952 945.657 1952 944H1951ZM1949 41V42C1949.55 42 1950 42.4477 1950 43H1951H1952C1952 41.3431 1950.66 40 1949 40V41ZM44 41V40C42.3431 40 41 41.3432 41 43H42H43C43 42.4477 43.4477 42 44 42V41Z" fill="black" fill-opacity="0.1"/>
<path d="M124.5 846H41V41H1949.5V846L1785.5 830C1785.5 830 1797.5 800 1781 749C1764.5 698 1651.5 717 1651.5 717L1642 666L1528.5 647.5H1357.5H1209.5L1066 666V767.5L1080 846H1031H950H901.5H816L760.5 830L677.5 846H624H536L469 830L404.5 846H300H226H124.5Z" fill="black" stroke="black"/>
<path d="M1646.5 804.5C1628 844 1646.5 837 1646.5 837C1646.5 837 1700 848.5 1727.5 837C1755 825.5 1769 818.5 1771.5 781.5C1774 744.5 1774 746.5 1727.5 737.5C1681 728.5 1665 765 1646.5 804.5Z" fill="black" stroke="black"/>
<rect x="42" y="5" width="59.375" height="30" rx="3" fill="white"/>
<rect x="42.5" y="5.5" width="58.375" height="29" rx="2.5" stroke="black" stroke-opacity="0.2"/>
<path d="M53.3438 17C53.2969 16.6042 53.1068 16.2969 52.7734 16.0781C52.4401 15.8594 52.0313 15.75 51.5469 15.75C51.1927 15.75 50.8828 15.8073 50.6172 15.9219C50.3542 16.0365 50.1484 16.194 50 16.3945C49.8542 16.5951 49.7813 16.8229 49.7813 17.0781C49.7813 17.2917 49.832 17.4753 49.9336 17.6289C50.0378 17.7799 50.1706 17.9062 50.332 18.0078C50.4935 18.1068 50.6628 18.1888 50.8398 18.2539C51.0169 18.3164 51.1797 18.3672 51.3281 18.4062L52.1406 18.625C52.349 18.6797 52.5807 18.7552 52.8359 18.8516C53.0938 18.9479 53.3398 19.0794 53.5742 19.2461C53.8112 19.4102 54.0065 19.6211 54.1602 19.8789C54.3138 20.1367 54.3906 20.4531 54.3906 20.8281C54.3906 21.2604 54.2773 21.651 54.0508 22C53.8268 22.349 53.4987 22.6263 53.0664 22.832C52.6367 23.0378 52.1146 23.1406 51.5 23.1406C50.9271 23.1406 50.431 23.0482 50.0117 22.8633C49.5951 22.6784 49.2669 22.4206 49.0273 22.0898C48.7904 21.7591 48.6563 21.375 48.625 20.9375H49.625C49.651 21.2396 49.7526 21.4896 49.9297 21.6875C50.1094 21.8828 50.3359 22.0286 50.6094 22.125C50.8854 22.2187 51.1823 22.2656 51.5 22.2656C51.8698 22.2656 52.2018 22.2057 52.4961 22.0859C52.7904 21.9635 53.0234 21.7943 53.1953 21.5781C53.3672 21.3594 53.4531 21.1042 53.4531 20.8125C53.4531 20.5469 53.3789 20.3307 53.2305 20.1641C53.082 19.9974 52.8867 19.862 52.6445 19.7578C52.4023 19.6536 52.1406 19.5625 51.8594 19.4844L50.875 19.2031C50.25 19.0234 49.7552 18.7669 49.3906 18.4336C49.026 18.1003 48.8438 17.6641 48.8438 17.125C48.8438 16.6771 48.9648 16.2865 49.207 15.9531C49.4518 15.6172 49.7799 15.3568 50.1914 15.1719C50.6055 14.9844 51.0677 14.8906 51.5781 14.8906C52.0938 14.8906 52.5521 14.9831 52.9531 15.168C53.3542 15.3503 53.6719 15.6003 53.9062 15.918C54.1432 16.2357 54.2682 16.5964 54.2813 17H53.3438ZM58.374 23.125C57.7959 23.125 57.2972 22.9974 56.8779 22.7422C56.4613 22.4844 56.1396 22.125 55.9131 21.6641C55.6891 21.2005 55.5771 20.6615 55.5771 20.0469C55.5771 19.4323 55.6891 18.8906 55.9131 18.4219C56.1396 17.9505 56.4548 17.5833 56.8584 17.3203C57.2646 17.0547 57.7386 16.9219 58.2803 16.9219C58.5928 16.9219 58.9014 16.974 59.2061 17.0781C59.5107 17.1823 59.7881 17.3516 60.0381 17.5859C60.2881 17.8177 60.4873 18.125 60.6357 18.5078C60.7842 18.8906 60.8584 19.362 60.8584 19.9219V20.3125H56.2334V19.5156H59.9209C59.9209 19.1771 59.8532 18.875 59.7178 18.6094C59.585 18.3437 59.3949 18.1341 59.1475 17.9805C58.9027 17.8268 58.6136 17.75 58.2803 17.75C57.9131 17.75 57.5954 17.8411 57.3271 18.0234C57.0615 18.2031 56.8571 18.4375 56.7139 18.7266C56.5706 19.0156 56.499 19.3255 56.499 19.6562V20.1875C56.499 20.6406 56.5771 21.0247 56.7334 21.3398C56.8923 21.6523 57.1123 21.8906 57.3936 22.0547C57.6748 22.2161 58.0016 22.2969 58.374 22.2969C58.6162 22.2969 58.835 22.263 59.0303 22.1953C59.2282 22.125 59.3988 22.0208 59.542 21.8828C59.6852 21.7422 59.7959 21.5677 59.874 21.3594L60.7646 21.6094C60.6709 21.9115 60.5133 22.1771 60.292 22.4062C60.0706 22.6328 59.7972 22.8099 59.4717 22.9375C59.1462 23.0625 58.7803 23.125 58.374 23.125ZM64.6982 23.125C64.1357 23.125 63.6514 22.9922 63.2451 22.7266C62.8389 22.4609 62.5264 22.0951 62.3076 21.6289C62.0889 21.1628 61.9795 20.6302 61.9795 20.0312C61.9795 19.4219 62.0915 18.8841 62.3154 18.418C62.542 17.9492 62.8571 17.5833 63.2607 17.3203C63.667 17.0547 64.141 16.9219 64.6826 16.9219C65.1045 16.9219 65.4847 17 65.8232 17.1562C66.1618 17.3125 66.4391 17.5312 66.6553 17.8125C66.8714 18.0937 67.0055 18.4219 67.0576 18.7969H66.1357C66.0654 18.5234 65.9092 18.2812 65.667 18.0703C65.4274 17.8568 65.1045 17.75 64.6982 17.75C64.3389 17.75 64.0238 17.8437 63.7529 18.0312C63.4847 18.2161 63.2751 18.4779 63.124 18.8164C62.9756 19.1523 62.9014 19.5469 62.9014 20C62.9014 20.4635 62.9743 20.8672 63.1201 21.2109C63.2686 21.5547 63.4769 21.8216 63.7451 22.0117C64.016 22.2018 64.3337 22.2969 64.6982 22.2969C64.9378 22.2969 65.1553 22.2552 65.3506 22.1719C65.5459 22.0885 65.7113 21.9688 65.8467 21.8125C65.9821 21.6562 66.0785 21.4687 66.1357 21.25H67.0576C67.0055 21.6042 66.8766 21.9232 66.6709 22.207C66.4678 22.4883 66.1982 22.7122 65.8623 22.8789C65.529 23.043 65.141 23.125 64.6982 23.125ZM71.0146 17V17.7812H67.9053V17H71.0146ZM68.8115 15.5625H69.7334V21.2812C69.7334 21.5417 69.7712 21.737 69.8467 21.8672C69.9248 21.9948 70.0238 22.0807 70.1436 22.125C70.266 22.1667 70.3949 22.1875 70.5303 22.1875C70.6318 22.1875 70.7152 22.1823 70.7803 22.1719C70.8454 22.1589 70.8975 22.1484 70.9365 22.1406L71.124 22.9687C71.0615 22.9922 70.9743 23.0156 70.8623 23.0391C70.7503 23.0651 70.6084 23.0781 70.4365 23.0781C70.1761 23.0781 69.9209 23.0221 69.6709 22.9102C69.4235 22.7982 69.2178 22.6276 69.0537 22.3984C68.8923 22.1693 68.8115 21.8802 68.8115 21.5312V15.5625ZM72.4014 23V17H73.3232V23H72.4014ZM72.8701 16C72.6904 16 72.5355 15.9388 72.4053 15.8164C72.2777 15.694 72.2139 15.5469 72.2139 15.375C72.2139 15.2031 72.2777 15.056 72.4053 14.9336C72.5355 14.8112 72.6904 14.75 72.8701 14.75C73.0498 14.75 73.2035 14.8112 73.3311 14.9336C73.4613 15.056 73.5264 15.2031 73.5264 15.375C73.5264 15.5469 73.4613 15.694 73.3311 15.8164C73.2035 15.9388 73.0498 16 72.8701 16ZM77.4492 23.125C76.9076 23.125 76.4323 22.9961 76.0234 22.7383C75.6172 22.4805 75.2995 22.1198 75.0703 21.6562C74.8438 21.1927 74.7305 20.651 74.7305 20.0312C74.7305 19.4062 74.8438 18.8607 75.0703 18.3945C75.2995 17.9284 75.6172 17.5664 76.0234 17.3086C76.4323 17.0508 76.9076 16.9219 77.4492 16.9219C77.9909 16.9219 78.4648 17.0508 78.8711 17.3086C79.2799 17.5664 79.5977 17.9284 79.8242 18.3945C80.0534 18.8607 80.168 19.4062 80.168 20.0312C80.168 20.651 80.0534 21.1927 79.8242 21.6562C79.5977 22.1198 79.2799 22.4805 78.8711 22.7383C78.4648 22.9961 77.9909 23.125 77.4492 23.125ZM77.4492 22.2969C77.8607 22.2969 78.1992 22.1914 78.4648 21.9805C78.7305 21.7695 78.9271 21.4922 79.0547 21.1484C79.1823 20.8047 79.2461 20.4323 79.2461 20.0312C79.2461 19.6302 79.1823 19.2565 79.0547 18.9102C78.9271 18.5638 78.7305 18.2839 78.4648 18.0703C78.1992 17.8568 77.8607 17.75 77.4492 17.75C77.0378 17.75 76.6992 17.8568 76.4336 18.0703C76.168 18.2839 75.9714 18.5638 75.8438 18.9102C75.7161 19.2565 75.6523 19.6302 75.6523 20.0312C75.6523 20.4323 75.7161 20.8047 75.8438 21.1484C75.9714 21.4922 76.168 21.7695 76.4336 21.9805C76.6992 22.1914 77.0378 22.2969 77.4492 22.2969ZM82.4971 19.3906V23H81.5752V17H82.4658V17.9375H82.5439C82.6846 17.6328 82.8981 17.388 83.1846 17.2031C83.471 17.0156 83.8408 16.9219 84.2939 16.9219C84.7002 16.9219 85.0557 17.0052 85.3604 17.1719C85.665 17.3359 85.902 17.5859 86.0713 17.9219C86.2406 18.2552 86.3252 18.6771 86.3252 19.1875V23H85.4033V19.25C85.4033 18.7786 85.2809 18.4115 85.0361 18.1484C84.7913 17.8828 84.4554 17.75 84.0283 17.75C83.734 17.75 83.471 17.8138 83.2393 17.9414C83.0101 18.069 82.8291 18.2552 82.6963 18.5C82.5635 18.7448 82.4971 19.0417 82.4971 19.3906ZM93.9004 15V23H92.9316V16.0156H92.8848L90.9316 17.3125V16.3281L92.9316 15H93.9004Z" fill="black"/>
</svg>
